# Created by Metasequoia

mtllib nicosolid_stage.mtl

v 14.142000 -1.529500 0.000001
v -0.000001 -1.529500 14.142000
v -14.142000 -1.529500 -0.000001
v 0.000001 -1.529500 -14.142000
v -0.000001 -0.029500 14.142000
v 14.142000 -0.669500 0.000001
v 13.690000 -0.029500 0.453001
v -13.690000 -0.029500 0.452999
v -14.142000 -0.669500 -0.000001
v 0.000001 -0.669500 -14.142000
v 0.000001 -0.029500 -13.237000
v 0.000001 -0.216500 -13.877000
v -14.010000 -0.216500 0.132999
v 14.010000 -0.216500 0.133001
v 13.152000 -0.129500 -0.140999
v 0.353999 -0.129500 12.657000
v 0.140999 -0.129500 12.445000
v 12.940000 -0.129500 -0.353999
v 13.152000 19.870501 -0.140999
v 0.353999 19.870501 12.657000
v 0.140999 19.870501 12.445000
v 12.940000 19.870501 -0.353999
v 0.706999 0.370500 13.011000
v 0.353999 0.370500 12.657000
v 0.706999 0.370500 12.304000
v 1.060999 0.370500 12.657000
v 0.706999 19.370501 13.011000
v 0.353999 19.370501 12.657000
v 0.706999 19.370501 12.304000
v 1.060999 19.370501 12.657000
v 13.152000 12.870500 0.566001
v 12.799000 12.870500 0.212001
v 12.799000 13.370500 0.212001
v 13.152000 13.370500 0.566001
v 1.060999 12.870500 12.657000
v 0.706999 12.870500 12.304000
v 0.706999 13.370500 12.304000
v 1.060999 13.370500 12.657000
v 13.506000 19.370501 0.212001
v 13.152000 19.370501 -0.140999
v 13.152000 19.870501 -0.140999
v 13.506000 19.870501 0.212001
v 0.706999 19.370501 13.011000
v 0.353999 19.370501 12.657000
v 0.353999 19.870501 12.657000
v 0.706999 19.870501 13.011000
v 13.152000 0.370500 0.566001
v 12.799000 0.370500 0.212001
v 13.152000 0.370500 -0.140999
v 13.506000 0.370500 0.212001
v 13.152000 19.370501 0.566001
v 12.799000 19.370501 0.212001
v 13.152000 19.370501 -0.140999
v 13.506000 19.370501 0.212001
v 13.506000 -0.129500 0.212001
v 13.152000 -0.129500 -0.140999
v 13.152000 0.370500 -0.140999
v 13.506000 0.370500 0.212001
v 0.706999 -0.129500 13.011000
v 0.353999 -0.129500 12.657000
v 0.353999 0.370500 12.657000
v 0.706999 0.370500 13.011000
v 13.152000 5.870500 0.566001
v 12.799000 5.870500 0.212001
v 12.799000 6.370500 0.212001
v 13.152000 6.370500 0.566001
v 1.060999 5.870500 12.657000
v 0.706999 5.870500 12.304000
v 0.706999 6.370500 12.304000
v 1.060999 6.370500 12.657000
v -0.071001 -0.129500 12.657000
v -12.869000 -0.129500 -0.141001
v -12.657000 -0.129500 -0.354001
v 0.140999 -0.129500 12.445000
v -0.071001 19.870501 12.657000
v -12.869000 19.870501 -0.141001
v -12.657000 19.870501 -0.354001
v 0.140999 19.870501 12.445000
v -13.223000 0.370500 0.211999
v -12.869000 0.370500 -0.141001
v -12.516000 0.370500 0.211999
v -12.869000 0.370500 0.565999
v -13.223000 19.370501 0.211999
v -12.869000 19.370501 -0.141001
v -12.516000 19.370501 0.211999
v -12.869000 19.370501 0.565999
v -0.778001 12.870500 12.657000
v -0.424001 12.870500 12.304000
v -0.424001 13.370500 12.304000
v -0.778001 13.370500 12.657000
v -12.869000 12.870500 0.565999
v -12.516000 12.870500 0.211999
v -12.516000 13.370500 0.211999
v -12.869000 13.370500 0.565999
v -0.424001 19.370501 13.011000
v -0.071001 19.370501 12.657000
v -0.071001 19.870501 12.657000
v -0.424001 19.870501 13.011000
v -13.223000 19.370501 0.211999
v -12.869000 19.370501 -0.141001
v -12.869000 19.870501 -0.141001
v -13.223000 19.870501 0.211999
v -0.778001 0.370500 12.657000
v -0.424001 0.370500 12.304000
v -0.071001 0.370500 12.657000
v -0.424001 0.370500 13.011000
v -0.778001 19.370501 12.657000
v -0.424001 19.370501 12.304000
v -0.071001 19.370501 12.657000
v -0.424001 19.370501 13.011000
v -0.424001 -0.129500 13.011000
v -0.071001 -0.129500 12.657000
v -0.071001 0.370500 12.657000
v -0.424001 0.370500 13.011000
v -13.223000 -0.129500 0.211999
v -12.869000 -0.129500 -0.141001
v -12.869000 0.370500 -0.141001
v -13.223000 0.370500 0.211999
v -0.778001 5.870500 12.657000
v -0.424001 5.870500 12.304000
v -0.424001 6.370500 12.304000
v -0.778001 6.370500 12.657000
v -12.869000 5.870500 0.565999
v -12.516000 5.870500 0.211999
v -12.516000 6.370500 0.211999
v -12.869000 6.370500 0.565999
# 126 vertices

vt 0.70000 1.00000
vt 0.00000 1.00000
vt 0.00000 0.00000
vt 0.70000 0.00000
vt 0.55986 0.25936
vt 0.61548 0.25936
vt 0.61548 0.33353
vt 0.55986 0.33353
vt 0.72673 0.25936
vt 0.67111 0.25936
vt 0.67111 0.18519
vt 0.72673 0.18519
vt 0.61548 0.18519
vt 0.55986 0.18519
vt 0.50423 0.25936
vt 0.50423 0.18519
vt 0.61548 0.11102
vt 0.55986 0.11102
vt 0.09285 0.91959
vt 0.14566 0.91959
vt 0.14566 0.99000
vt 0.09285 0.99000
vt 0.25128 0.91959
vt 0.19847 0.91959
vt 0.19847 0.84917
vt 0.25128 0.84917
vt 0.14566 0.84917
vt 0.09285 0.84917
vt 0.04004 0.91959
vt 0.04004 0.84917
vt 0.14566 0.77876
vt 0.09285 0.77876
vt 0.78584 0.76556
vt 0.73153 0.76556
vt 0.73153 0.69314
vt 0.78584 0.69314
vt 0.62291 0.76556
vt 0.67722 0.76556
vt 0.67722 0.83797
vt 0.62291 0.83797
vt 0.73153 0.83797
vt 0.78584 0.83797
vt 0.84015 0.76556
vt 0.84015 0.83797
vt 0.73153 0.91038
vt 0.78584 0.91038
vt 0.55986 0.91583
vt 0.61548 0.91583
vt 0.61548 0.99000
vt 0.55986 0.99000
vt 0.72673 0.91583
vt 0.67111 0.91583
vt 0.67111 0.84166
vt 0.72673 0.84166
vt 0.61548 0.84166
vt 0.55986 0.84166
vt 0.50423 0.91583
vt 0.50423 0.84166
vt 0.61548 0.76750
vt 0.55986 0.76750
vt 0.78584 0.10908
vt 0.73153 0.10908
vt 0.73153 0.03667
vt 0.78584 0.03667
vt 0.62291 0.10908
vt 0.67722 0.10908
vt 0.67722 0.18150
vt 0.62291 0.18150
vt 0.73153 0.18150
vt 0.78584 0.18150
vt 0.84015 0.10908
vt 0.84015 0.18150
vt 0.73153 0.25391
vt 0.78584 0.25391
vt 0.09285 0.26312
vt 0.14566 0.26312
vt 0.14566 0.33353
vt 0.09285 0.33353
vt 0.25128 0.26312
vt 0.19847 0.26312
vt 0.19847 0.19270
vt 0.25128 0.19270
vt 0.14566 0.19270
vt 0.09285 0.19270
vt 0.04004 0.26312
vt 0.04004 0.19270
vt 0.14566 0.12229
vt 0.09285 0.12229
vt 0.25000 0.66667
vt 0.50000 0.66667
vt 0.50000 1.00000
vt 0.25000 1.00000
vt 0.50000 0.39911
vt 0.25400 0.39911
vt 0.25800 0.32267
vt 0.50000 0.32267
vt 0.50000 0.47556
vt 0.25000 0.47556
vt 0.25000 0.33333
vt 0.00000 0.33333
vt 0.00000 0.19111
vt 0.25000 0.19111
vt 0.00000 0.47556
vt 0.00000 0.66667
vt 0.25800 0.00000
vt 0.50000 0.00000
vt 0.25500 0.66333
vt 0.50000 0.66333
vt 0.50000 0.99000
vt 0.25500 0.99000
vt 0.99000 0.66333
vt 0.74500 0.66333
vt 0.74500 0.33667
vt 0.99000 0.33667
vt 0.50000 0.33667
vt 0.01000 0.66333
vt 0.01000 0.33667
vt 0.25500 0.33667
vt 0.50000 0.01000
vt 0.25500 0.01000
vt 0.75000 0.33333
vt 0.99200 0.33333
vt 0.75000 0.66667
vt 1.00000 0.66667
vt 0.99600 0.40444
vt 1.00000 0.47556
vt 0.50400 0.40444
vt 0.50800 0.33333
# 128 texture vertices

vn 0.00000 -1.00000 0.00000
vn 0.00000 1.00000 0.00000
vn 0.69355 0.19485 -0.69355
vn 0.13765 0.98087 -0.13765
vn -0.13765 0.98087 -0.13765
vn -0.69355 0.19485 -0.69355
vn 0.00000 0.98249 -0.18629
vn -0.25007 0.85371 -0.45677
vn -0.49991 0.70724 -0.49991
vn 0.49991 0.70724 -0.49991
vn -0.70711 0.00000 -0.70711
vn 0.70711 0.00000 0.70711
vn -0.70811 0.00000 0.70611
vn -0.70711 0.00000 -0.70711
vn 0.70611 0.00000 -0.70811
vn 0.70811 0.00000 -0.70611
vn -0.70711 0.00000 -0.70711
vn 0.70611 0.00000 -0.70811
vn -0.70711 0.00000 -0.70711
vn -0.70811 0.00000 0.70611
vn -0.70711 0.00000 -0.70711
vn 0.70713 0.00000 -0.70708
vn -0.70711 0.00000 0.70711
vn -0.70611 0.00000 -0.70811
vn 0.70711 0.00000 -0.70711
vn 0.70811 0.00000 0.70611
vn 0.70611 0.00000 0.70811
vn 0.70711 0.00000 -0.70711
vn 0.70811 0.00000 0.70611
vn 0.70711 0.00000 -0.70711
vn -0.70611 0.00000 -0.70811
vn 0.70711 0.00000 -0.70711
vn 0.70711 0.00000 0.70711
vn -0.70611 0.00000 0.70811
vn 0.70711 0.00000 0.70711
vn 0.70711 0.00000 0.70711
vn -0.70711 0.00000 0.70711
vn -0.70711 0.00000 0.70711
vn -0.70811 0.00000 -0.70611
vn -0.70711 0.00000 0.70711
vn -0.70711 0.00000 0.70711
vn 0.65341 0.38224 -0.65341
vn 0.70711 0.00000 -0.70711
vn -0.70544 0.00000 0.70877
vn 0.70877 0.00000 -0.70544
vn -0.70877 0.00000 -0.70544
vn 0.70711 0.00000 0.70711
vn 0.70708 0.00000 0.70713
vn 0.70704 -0.00035 0.70717
vn 0.70709 -0.00024 0.70712
vn 0.70794 -0.00035 0.70627
vn 0.70836 -0.00029 0.70586
vn 0.70977 0.00000 0.70443
vn -0.70713 -0.00077 0.70708
vn -0.70711 -0.00040 0.70711
vn -0.70712 -0.00080 0.70709
vn -0.70708 -0.00004 0.70713
vn -0.70708 0.00000 0.70713
# 58 normal vertices

usemtl m_logo
f 21/4/11 22/3/11 18/2/11 17/1/11
f 77/4/22 78/3/22 74/2/22 73/1/22
usemtl m_hari
f 23/8/1 24/7/1 25/6/1 26/5/1
f 27/12/13 28/11/13 24/10/13 23/9/13
f 28/11/14 29/13/14 25/6/14 24/10/14
f 29/13/15 30/14/15 26/5/15 25/6/15
f 30/14/33 27/16/33 23/15/33 26/5/33
f 27/18/2 30/14/2 29/13/2 28/17/2
f 31/22/16 32/21/16 33/20/16 34/19/16
f 35/26/1 36/25/1 32/24/1 31/23/1
f 36/25/17 37/27/17 33/20/17 32/24/17
f 37/27/2 38/28/2 34/19/2 33/20/2
f 38/28/12 35/30/12 31/29/12 34/19/12
f 35/32/34 38/28/34 37/27/34 36/31/34
f 39/36/18 40/35/18 41/34/18 42/33/18
f 43/40/1 44/39/1 40/38/1 39/37/1
f 44/39/19 45/41/19 41/34/19 40/38/19
f 45/41/2 46/42/2 42/33/2 41/34/2
f 46/42/35 43/44/35 39/43/35 42/33/35
f 43/46/13 46/42/13 45/41/13 44/45/13
f 47/50/1 48/49/1 49/48/1 50/47/1
f 51/54/20 52/53/20 48/52/20 47/51/20
f 52/53/21 53/55/21 49/48/21 48/52/21
f 53/55/18 54/56/18 50/47/18 49/48/18
f 54/56/36 51/58/36 47/57/36 50/47/36
f 51/60/2 54/56/2 53/55/2 52/59/2
f 55/64/18 56/63/18 57/62/18 58/61/18
f 59/68/1 60/67/1 56/66/1 55/65/1
f 60/67/19 61/69/19 57/62/19 56/66/19
f 61/69/2 62/70/2 58/61/2 57/62/2
f 62/70/35 59/72/35 55/71/35 58/61/35
f 59/74/13 62/70/13 61/69/13 60/73/13
f 63/78/16 64/77/16 65/76/16 66/75/16
f 67/82/1 68/81/1 64/80/1 63/79/1
f 68/81/17 69/83/17 65/76/17 64/80/17
f 69/83/2 70/84/2 66/75/2 65/76/2
f 70/84/12 67/86/12 63/85/12 66/75/12
f 67/88/34 70/84/34 69/83/34 68/87/34
f 79/8/1 80/7/1 81/6/1 82/5/1
f 83/12/24 84/11/24 80/10/24 79/9/24
f 84/11/25 85/13/25 81/6/25 80/10/25
f 85/13/26 86/14/26 82/5/26 81/6/26
f 86/14/37 83/16/37 79/15/37 82/5/37
f 83/18/2 86/14/2 85/13/2 84/17/2
f 87/22/27 88/21/27 89/20/27 90/19/27
f 91/26/1 92/25/1 88/24/1 87/23/1
f 92/25/28 93/27/28 89/20/28 88/24/28
f 93/27/2 94/28/2 90/19/2 89/20/2
f 94/28/38 91/30/38 87/29/38 90/19/38
f 91/32/39 94/28/39 93/27/39 92/31/39
f 95/36/29 96/35/29 97/34/29 98/33/29
f 99/40/1 100/39/1 96/38/1 95/37/1
f 100/39/30 101/41/30 97/34/30 96/38/30
f 101/41/2 102/42/2 98/33/2 97/34/2
f 102/42/40 99/44/40 95/43/40 98/33/40
f 99/46/24 102/42/24 101/41/24 100/45/24
f 103/50/1 104/49/1 105/48/1 106/47/1
f 107/54/31 108/53/31 104/52/31 103/51/31
f 108/53/32 109/55/32 105/48/32 104/52/32
f 109/55/29 110/56/29 106/47/29 105/48/29
f 110/56/41 107/58/41 103/57/41 106/47/41
f 107/60/2 110/56/2 109/55/2 108/59/2
f 111/64/29 112/63/29 113/62/29 114/61/29
f 115/68/1 116/67/1 112/66/1 111/65/1
f 116/67/30 117/69/30 113/62/30 112/66/30
f 117/69/2 118/70/2 114/61/2 113/62/2
f 118/70/40 115/72/40 111/71/40 114/61/40
f 115/74/24 118/70/24 117/69/24 116/73/24
f 119/78/27 120/77/27 121/76/27 122/75/27
f 123/82/1 124/81/1 120/80/1 119/79/1
f 124/81/28 125/83/28 121/76/28 120/80/28
f 125/83/2 126/84/2 122/75/2 121/76/2
f 126/84/38 123/86/38 119/85/38 122/75/38
f 123/88/39 126/84/39 125/83/39 124/87/39
usemtl m_stage
f 1/92/1 2/91/1 3/90/1 4/89/1
f 8/96/5 11/95/7 12/94/8 13/93/9
f 13/93/9 12/94/8 10/98/6 9/97/6
f 11/102/7 7/101/4 14/100/10 12/99/8
f 12/99/42 14/100/10 6/103/3 10/98/3
f 10/98/6 4/89/11 3/90/11 9/97/6
f 6/103/3 1/104/43 4/89/43 10/98/3
f 11/95/7 8/96/5 5/106/2 7/105/4
usemtl m_board
f 15/110/1 16/109/1 17/108/1 18/107/1
f 19/114/12 20/113/12 16/112/12 15/111/12
f 20/113/44 21/115/44 17/108/44 16/112/44
f 22/118/45 19/117/45 15/116/45 18/107/45
f 19/120/2 22/118/2 21/115/2 20/119/2
f 71/110/1 72/109/1 73/108/1 74/107/1
f 75/114/23 76/113/23 72/112/23 71/111/23
f 76/113/46 77/115/46 73/108/46 72/112/46
f 78/118/47 75/117/47 71/116/47 74/107/47
f 75/120/2 78/118/2 77/115/2 76/119/2
usemtl m_stage
f 2/123/50 7/122/49 5/121/48
f 1/124/51 7/122/49 2/123/50
f 1/124/51 14/125/52 7/122/49
f 1/124/51 6/126/53 14/125/52
f 2/123/55 9/97/54 3/90/40
f 2/123/55 13/127/56 9/97/54
f 2/123/55 8/128/57 13/127/56
f 2/123/55 5/121/58 8/128/57
# 100 elements

